<?xml version="1.0" encoding="UTF-8" standalone="no"?>
<!DOCTYPE svg PUBLIC "-//W3C//DTD SVG 1.1//EN" "http://www.w3.org/Graphics/SVG/1.1/DTD/svg11.dtd">
<svg width="100%" height="100%" viewBox="0 0 3427 841" version="1.1" xmlns="http://www.w3.org/2000/svg" xmlns:xlink="http://www.w3.org/1999/xlink" xml:space="preserve" xmlns:serif="http://www.serif.com/" style="fill-rule:evenodd;clip-rule:evenodd;stroke-linejoin:round;stroke-miterlimit:2;">
    <g transform="matrix(1,0,0,1,-1800,-11557)">
        <g transform="matrix(0.567472,0,0,0.567472,780.733,5907.97)">
            <g transform="matrix(0.352542,0,0,0.352542,1300.64,8744.12)">
                <g transform="matrix(4.26658,0,0,4.58097,1061.28,3409.28)">
                    <path d="M828.799,223.58C828.799,174.252 785.801,134.205 732.839,134.205L182.558,134.205C129.596,134.205 86.597,174.252 86.597,223.58L86.597,732.329C86.597,781.656 129.596,821.704 182.558,821.704L732.839,821.704C785.801,821.704 828.799,781.656 828.799,732.329L828.799,223.58Z" style="fill:white;"/>
                </g>
                <g transform="matrix(6.73616,0,0,6.04153,272.187,3275.04)">
                    <path d="M324.785,121.195C324.785,98.356 308.155,79.814 287.672,79.814C267.189,79.814 250.559,98.356 250.559,121.195L250.559,209.128C250.559,231.966 267.189,250.508 287.672,250.508C308.155,250.508 324.785,231.966 324.785,209.128L324.785,121.195Z" style="fill:white;"/>
                </g>
                <g transform="matrix(6.73616,0,0,6.04153,1858.53,3275.04)">
                    <path d="M324.785,121.195C324.785,98.356 308.155,79.814 287.672,79.814C267.189,79.814 250.559,98.356 250.559,121.195L250.559,209.128C250.559,231.966 267.189,250.508 287.672,250.508C308.155,250.508 324.785,231.966 324.785,209.128L324.785,121.195Z" style="fill:white;"/>
                </g>
                <g transform="matrix(4.16667,0,0,4.16667,1147.4,3585.72)">
                    <g transform="matrix(0.94314,0,0,1.01818,13.4814,-3.57448)">
                        <path d="M828.799,216.705C828.799,171.172 788.891,134.205 739.735,134.205L175.661,134.205C126.506,134.205 86.597,171.172 86.597,216.705L86.597,739.204C86.597,784.737 126.506,821.704 175.661,821.704L739.735,821.704C788.891,821.704 828.799,784.737 828.799,739.204L828.799,216.705Z" style="fill:none;"/>
                        <clipPath id="_clip1">
                            <path d="M828.799,216.705C828.799,171.172 788.891,134.205 739.735,134.205L175.661,134.205C126.506,134.205 86.597,171.172 86.597,216.705L86.597,739.204C86.597,784.737 126.506,821.704 175.661,821.704L739.735,821.704C788.891,821.704 828.799,784.737 828.799,739.204L828.799,216.705Z"/>
                        </clipPath>
                        <g clip-path="url(#_clip1)">
                            <g transform="matrix(1.06029,0,0,0.982141,-22.2359,10.3633)">
                                <rect x="70.123" y="92.141" width="788.701" height="227.528" style="fill:rgb(0,102,153);"/>
                            </g>
                        </g>
                    </g>
                    <g transform="matrix(1,0,0,1,-307.314,11.2935)">
                        <g transform="matrix(1.43839,0,0,1.43839,46.145,-159.592)">
                            <circle cx="358.865" cy="258.779" r="48.665" style="fill:white;"/>
                        </g>
                        <g transform="matrix(1.07779,0,0,1.17169,252.286,-39.6221)">
                            <path d="M324.785,113.953C324.785,95.111 308.155,79.814 287.672,79.814C267.189,79.814 250.559,95.111 250.559,113.953L250.559,216.369C250.559,235.211 267.189,250.508 287.672,250.508C308.155,250.508 324.785,235.211 324.785,216.369L324.785,113.953Z" style="fill:rgb(204,204,204);"/>
                        </g>
                    </g>
                    <g transform="matrix(1,0,0,1,73.4082,11.2935)">
                        <g transform="matrix(1.43839,0,0,1.43839,46.145,-159.592)">
                            <circle cx="358.865" cy="258.779" r="48.665" style="fill:white;"/>
                        </g>
                        <g transform="matrix(1.07779,0,0,1.17169,252.286,-39.6221)">
                            <path d="M324.785,113.953C324.785,95.111 308.155,79.814 287.672,79.814C267.189,79.814 250.559,95.111 250.559,113.953L250.559,216.369C250.559,235.211 267.189,250.508 287.672,250.508C308.155,250.508 324.785,235.211 324.785,216.369L324.785,113.953Z" style="fill:rgb(204,204,204);"/>
                        </g>
                    </g>
                    <g transform="matrix(1.15048,0,0,1.15048,-241.259,-72.9852)">
                        <g transform="matrix(475.334,0,0,475.334,474.935,765.022)">
                            <path d="M0.224,0.02L0.219,0.02L0.131,-0.022L0.354,-0.648L0.024,-0.648L0.024,-0.653L0.064,-0.737L0.487,-0.737L0.487,-0.732L0.224,0.02Z" style="fill:rgb(0,102,153);fill-rule:nonzero;"/>
                        </g>
                    </g>
                </g>
            </g>
            <g>
                <g transform="matrix(0.980478,0,0,0.973866,-2802.24,7601.52)">
                    <g transform="matrix(1016.93,0,0,1016.93,6148.14,3238.85)">
                        <path d="M0.195,-0.088L0.298,-0.088C0.33,-0.088 0.347,-0.107 0.347,-0.146L0.347,-0.213C0.347,-0.252 0.33,-0.272 0.298,-0.272L0.195,-0.272C0.163,-0.272 0.146,-0.252 0.146,-0.213L0.146,-0.146C0.146,-0.107 0.163,-0.088 0.195,-0.088ZM0.195,-0C0.098,-0 0.049,-0.049 0.049,-0.146L0.049,-0.213C0.049,-0.311 0.098,-0.36 0.195,-0.36L0.298,-0.36C0.315,-0.36 0.331,-0.355 0.347,-0.345L0.347,-0.391C0.347,-0.43 0.33,-0.449 0.298,-0.449L0.123,-0.449L0.123,-0.454L0.162,-0.537L0.298,-0.537C0.396,-0.537 0.444,-0.488 0.444,-0.391L0.444,-0.024L0.352,0.02L0.347,0.02L0.347,-0.015C0.334,-0.005 0.318,-0 0.298,-0L0.195,-0Z" style="fill:white;fill-rule:nonzero;"/>
                    </g>
                    <g transform="matrix(1016.93,0,0,1016.93,6629.31,3238.85)">
                        <path d="M0.213,0.02L0.024,-0.517L0.109,-0.557L0.114,-0.557L0.252,-0.149L0.387,-0.557L0.392,-0.557L0.477,-0.517L0.302,-0.021L0.218,0.02L0.213,0.02Z" style="fill:white;fill-rule:nonzero;"/>
                    </g>
                    <g transform="matrix(1016.93,0,0,1016.93,7093.6,3238.85)">
                        <path d="M0.195,-0.088L0.298,-0.088C0.33,-0.088 0.347,-0.107 0.347,-0.146L0.347,-0.213C0.347,-0.252 0.33,-0.272 0.298,-0.272L0.195,-0.272C0.163,-0.272 0.146,-0.252 0.146,-0.213L0.146,-0.146C0.146,-0.107 0.163,-0.088 0.195,-0.088ZM0.195,-0C0.098,-0 0.049,-0.049 0.049,-0.146L0.049,-0.213C0.049,-0.311 0.098,-0.36 0.195,-0.36L0.298,-0.36C0.315,-0.36 0.331,-0.355 0.347,-0.345L0.347,-0.391C0.347,-0.43 0.33,-0.449 0.298,-0.449L0.123,-0.449L0.123,-0.454L0.162,-0.537L0.298,-0.537C0.396,-0.537 0.444,-0.488 0.444,-0.391L0.444,-0.024L0.352,0.02L0.347,0.02L0.347,-0.015C0.334,-0.005 0.318,-0 0.298,-0L0.195,-0Z" style="fill:white;fill-rule:nonzero;"/>
                    </g>
                    <g transform="matrix(1016.93,0,0,1016.93,7599.6,3238.85)">
                        <path d="M0.105,-0.645C0.094,-0.657 0.088,-0.671 0.088,-0.687C0.088,-0.704 0.094,-0.718 0.105,-0.729C0.116,-0.741 0.13,-0.747 0.146,-0.747C0.163,-0.747 0.177,-0.741 0.188,-0.729C0.199,-0.718 0.205,-0.704 0.205,-0.687C0.205,-0.671 0.199,-0.657 0.188,-0.645C0.177,-0.633 0.163,-0.627 0.146,-0.627C0.13,-0.627 0.116,-0.633 0.105,-0.645ZM0.098,0.02L0.098,-0.513L0.19,-0.557L0.195,-0.557L0.195,-0.024L0.103,0.02L0.098,0.02Z" style="fill:white;fill-rule:nonzero;"/>
                    </g>
                    <g transform="matrix(1016.93,0,0,1016.93,7826.34,3238.85)">
                        <path d="M0.098,0.02L0.098,-0.713L0.19,-0.757L0.195,-0.757L0.195,-0.024L0.103,0.02L0.098,0.02Z" style="fill:white;fill-rule:nonzero;"/>
                    </g>
                    <g transform="matrix(1016.93,0,0,1016.93,8103.93,3238.85)">
                        <path d="M0.195,-0.088L0.298,-0.088C0.33,-0.088 0.347,-0.107 0.347,-0.146L0.347,-0.213C0.347,-0.252 0.33,-0.272 0.298,-0.272L0.195,-0.272C0.163,-0.272 0.146,-0.252 0.146,-0.213L0.146,-0.146C0.146,-0.107 0.163,-0.088 0.195,-0.088ZM0.195,-0C0.098,-0 0.049,-0.049 0.049,-0.146L0.049,-0.213C0.049,-0.311 0.098,-0.36 0.195,-0.36L0.298,-0.36C0.315,-0.36 0.331,-0.355 0.347,-0.345L0.347,-0.391C0.347,-0.43 0.33,-0.449 0.298,-0.449L0.123,-0.449L0.123,-0.454L0.162,-0.537L0.298,-0.537C0.396,-0.537 0.444,-0.488 0.444,-0.391L0.444,-0.024L0.352,0.02L0.347,0.02L0.347,-0.015C0.334,-0.005 0.318,-0 0.298,-0L0.195,-0Z" style="fill:white;fill-rule:nonzero;"/>
                    </g>
                    <g transform="matrix(1016.93,0,0,1016.93,8609.93,3238.85)">
                        <path d="M0.244,-0.088L0.356,-0.088C0.389,-0.088 0.405,-0.107 0.405,-0.146L0.405,-0.391C0.405,-0.43 0.389,-0.449 0.356,-0.449L0.244,-0.449C0.212,-0.449 0.195,-0.43 0.195,-0.391L0.195,-0.146C0.195,-0.107 0.212,-0.088 0.244,-0.088ZM0.244,-0C0.146,-0 0.098,-0.049 0.098,-0.146L0.098,-0.713L0.19,-0.757L0.195,-0.757L0.195,-0.522C0.208,-0.532 0.225,-0.537 0.244,-0.537L0.356,-0.537C0.454,-0.537 0.503,-0.488 0.503,-0.391L0.503,-0.146C0.503,-0.049 0.454,-0 0.356,-0L0.244,-0Z" style="fill:white;fill-rule:nonzero;"/>
                    </g>
                    <g transform="matrix(1016.93,0,0,1016.93,9155.18,3238.85)">
                        <path d="M0.105,-0.645C0.094,-0.657 0.088,-0.671 0.088,-0.687C0.088,-0.704 0.094,-0.718 0.105,-0.729C0.116,-0.741 0.13,-0.747 0.146,-0.747C0.163,-0.747 0.177,-0.741 0.188,-0.729C0.199,-0.718 0.205,-0.704 0.205,-0.687C0.205,-0.671 0.199,-0.657 0.188,-0.645C0.177,-0.633 0.163,-0.627 0.146,-0.627C0.13,-0.627 0.116,-0.633 0.105,-0.645ZM0.098,0.02L0.098,-0.513L0.19,-0.557L0.195,-0.557L0.195,-0.024L0.103,0.02L0.098,0.02Z" style="fill:white;fill-rule:nonzero;"/>
                    </g>
                    <g transform="matrix(1016.93,0,0,1016.93,9422.6,3238.85)">
                        <path d="M0.098,0.02L0.098,-0.713L0.19,-0.757L0.195,-0.757L0.195,-0.024L0.103,0.02L0.098,0.02Z" style="fill:white;fill-rule:nonzero;"/>
                    </g>
                    <g transform="matrix(1016.93,0,0,1016.93,9700.19,3238.85)">
                        <path d="M0.105,-0.645C0.094,-0.657 0.088,-0.671 0.088,-0.687C0.088,-0.704 0.094,-0.718 0.105,-0.729C0.116,-0.741 0.13,-0.747 0.146,-0.747C0.163,-0.747 0.177,-0.741 0.188,-0.729C0.199,-0.718 0.205,-0.704 0.205,-0.687C0.205,-0.671 0.199,-0.657 0.188,-0.645C0.177,-0.633 0.163,-0.627 0.146,-0.627C0.13,-0.627 0.116,-0.633 0.105,-0.645ZM0.098,0.02L0.098,-0.513L0.19,-0.557L0.195,-0.557L0.195,-0.024L0.103,0.02L0.098,0.02Z" style="fill:white;fill-rule:nonzero;"/>
                    </g>
                    <g transform="matrix(1016.93,0,0,1016.93,9977.78,3238.85)">
                        <path d="M0.138,0.02L0.138,-0.448L0.012,-0.448L0.012,-0.453L0.052,-0.537L0.138,-0.537L0.138,-0.713L0.23,-0.757L0.235,-0.757L0.235,-0.537L0.361,-0.537L0.361,-0.532L0.321,-0.448L0.235,-0.448L0.235,-0.024L0.143,0.02L0.138,0.02Z" style="fill:white;fill-rule:nonzero;"/>
                    </g>
                    <g transform="matrix(1016.93,0,0,1016.93,10336.8,3238.85)">
                        <path d="M0.22,-0C0.122,-0 0.073,-0.049 0.073,-0.146L0.073,-0.513L0.166,-0.557L0.171,-0.557L0.171,-0.146C0.171,-0.107 0.187,-0.088 0.22,-0.088L0.332,-0.088C0.365,-0.088 0.381,-0.107 0.381,-0.146L0.381,-0.513L0.474,-0.557L0.479,-0.557L0.479,0.054C0.479,0.151 0.43,0.2 0.332,0.2L0.124,0.2L0.124,0.195L0.163,0.112L0.332,0.112C0.365,0.112 0.381,0.093 0.381,0.054L0.381,-0.015C0.368,-0.005 0.352,-0 0.332,-0L0.22,-0Z" style="fill:white;fill-rule:nonzero;"/>
                    </g>
                </g>
                <g transform="matrix(1,0,0,1,-2015.08,-1208.39)">
                    <g transform="matrix(1.00679,0,0,1,-40.1297,0)">
                        <g transform="matrix(990.349,0,0,990.349,5910.48,12607.4)">
                            <path d="M0.22,-0C0.122,-0 0.073,-0.049 0.073,-0.146L0.073,-0.391C0.073,-0.488 0.122,-0.537 0.22,-0.537L0.332,-0.537C0.43,-0.537 0.479,-0.488 0.479,-0.391L0.479,-0.365L0.386,-0.321L0.381,-0.321L0.381,-0.391C0.381,-0.43 0.365,-0.449 0.332,-0.449L0.22,-0.449C0.187,-0.449 0.171,-0.43 0.171,-0.391L0.171,-0.146C0.171,-0.107 0.187,-0.088 0.22,-0.088L0.332,-0.088C0.365,-0.088 0.381,-0.107 0.381,-0.146L0.381,-0.172L0.474,-0.216L0.479,-0.216L0.479,-0.146C0.479,-0.049 0.43,-0 0.332,-0L0.22,-0Z" style="fill:white;fill-rule:nonzero;"/>
                        </g>
                    </g>
                    <g transform="matrix(1.00679,0,0,1,-43.7295,0)">
                        <g transform="matrix(990.349,0,0,990.349,6440.68,12607.4)">
                            <path d="M0.195,-0.088L0.298,-0.088C0.33,-0.088 0.347,-0.107 0.347,-0.146L0.347,-0.213C0.347,-0.252 0.33,-0.272 0.298,-0.272L0.195,-0.272C0.163,-0.272 0.146,-0.252 0.146,-0.213L0.146,-0.146C0.146,-0.107 0.163,-0.088 0.195,-0.088ZM0.195,-0C0.098,-0 0.049,-0.049 0.049,-0.146L0.049,-0.213C0.049,-0.311 0.098,-0.36 0.195,-0.36L0.298,-0.36C0.315,-0.36 0.331,-0.355 0.347,-0.345L0.347,-0.391C0.347,-0.43 0.33,-0.449 0.298,-0.449L0.123,-0.449L0.123,-0.454L0.162,-0.537L0.298,-0.537C0.396,-0.537 0.444,-0.488 0.444,-0.391L0.444,-0.024L0.352,0.02L0.347,0.02L0.347,-0.015C0.334,-0.005 0.318,-0 0.298,-0L0.195,-0Z" style="fill:white;fill-rule:nonzero;"/>
                        </g>
                        <g transform="matrix(990.349,0,0,990.349,6883.94,12607.4)">
                            <path d="M0.098,0.02L0.098,-0.713L0.19,-0.757L0.195,-0.757L0.195,-0.024L0.103,0.02L0.098,0.02Z" style="fill:white;fill-rule:nonzero;"/>
                        </g>
                    </g>
                    <g transform="matrix(1.00679,0,0,1,-48.2689,0)">
                        <g transform="matrix(990.349,0,0,990.349,7109.26,12607.4)">
                            <path d="M0.22,-0C0.122,-0 0.073,-0.049 0.073,-0.146L0.073,-0.391C0.073,-0.488 0.122,-0.537 0.22,-0.537L0.332,-0.537C0.43,-0.537 0.479,-0.488 0.479,-0.391L0.479,-0.365L0.172,-0.128C0.177,-0.101 0.193,-0.088 0.22,-0.088L0.332,-0.088C0.365,-0.088 0.381,-0.107 0.381,-0.146L0.381,-0.172L0.474,-0.216L0.479,-0.216L0.479,-0.146C0.479,-0.049 0.43,-0 0.332,-0L0.22,-0ZM0.171,-0.23L0.38,-0.399C0.378,-0.432 0.362,-0.449 0.332,-0.449L0.22,-0.449C0.187,-0.449 0.171,-0.43 0.171,-0.391L0.171,-0.23Z" style="fill:white;fill-rule:nonzero;"/>
                        </g>
                        <g transform="matrix(990.349,0,0,990.349,7635.89,12607.4)">
                            <path d="M0.073,0.02L0.073,-0.391C0.073,-0.488 0.122,-0.537 0.22,-0.537L0.332,-0.537C0.43,-0.537 0.479,-0.488 0.479,-0.391L0.479,-0.024L0.386,0.02L0.381,0.02L0.381,-0.391C0.381,-0.43 0.365,-0.449 0.332,-0.449L0.22,-0.449C0.187,-0.449 0.171,-0.43 0.171,-0.391L0.171,-0.024L0.078,0.02L0.073,0.02Z" style="fill:white;fill-rule:nonzero;"/>
                        </g>
                        <g transform="matrix(990.349,0,0,990.349,8162.51,12607.4)">
                            <path d="M0.22,-0C0.122,-0 0.073,-0.049 0.073,-0.146L0.073,-0.391C0.073,-0.488 0.122,-0.537 0.22,-0.537L0.332,-0.537C0.354,-0.537 0.37,-0.532 0.381,-0.522L0.381,-0.713L0.474,-0.757L0.479,-0.757L0.479,-0.146C0.479,-0.049 0.43,-0 0.332,-0L0.22,-0ZM0.22,-0.088L0.332,-0.088C0.365,-0.088 0.381,-0.107 0.381,-0.146L0.381,-0.391C0.381,-0.43 0.365,-0.449 0.332,-0.449L0.22,-0.449C0.187,-0.449 0.171,-0.43 0.171,-0.391L0.171,-0.146C0.171,-0.107 0.187,-0.088 0.22,-0.088Z" style="fill:white;fill-rule:nonzero;"/>
                        </g>
                        <g transform="matrix(990.349,0,0,990.349,8713.32,12607.4)">
                            <path d="M0.195,-0.088L0.298,-0.088C0.33,-0.088 0.347,-0.107 0.347,-0.146L0.347,-0.213C0.347,-0.252 0.33,-0.272 0.298,-0.272L0.195,-0.272C0.163,-0.272 0.146,-0.252 0.146,-0.213L0.146,-0.146C0.146,-0.107 0.163,-0.088 0.195,-0.088ZM0.195,-0C0.098,-0 0.049,-0.049 0.049,-0.146L0.049,-0.213C0.049,-0.311 0.098,-0.36 0.195,-0.36L0.298,-0.36C0.315,-0.36 0.331,-0.355 0.347,-0.345L0.347,-0.391C0.347,-0.43 0.33,-0.449 0.298,-0.449L0.123,-0.449L0.123,-0.454L0.162,-0.537L0.298,-0.537C0.396,-0.537 0.444,-0.488 0.444,-0.391L0.444,-0.024L0.352,0.02L0.347,0.02L0.347,-0.015C0.334,-0.005 0.318,-0 0.298,-0L0.195,-0Z" style="fill:white;fill-rule:nonzero;"/>
                        </g>
                        <g transform="matrix(990.349,0,0,990.349,9206.09,12607.4)">
                            <path d="M0.073,0.02L0.073,-0.391C0.073,-0.488 0.122,-0.537 0.22,-0.537L0.342,-0.537L0.342,-0.532L0.303,-0.449L0.22,-0.449C0.187,-0.449 0.171,-0.43 0.171,-0.391L0.171,-0.024L0.078,0.02L0.073,0.02Z" style="fill:white;fill-rule:nonzero;"/>
                        </g>
                    </g>
                </g>
            </g>
        </g>
    </g>
</svg>
